HIERARCHY
ROOT Hips
{
	OFFSET 55.310501 45.591206 43.872097
	CHANNELS 6 Xposition Yposition Zposition Zrotation Xrotation Yrotation
	JOINT Chest
	{
		OFFSET -0.153500 1.163101 7.852402
		CHANNELS 6 Xposition Yposition Zposition Zrotation Xrotation Yrotation
		JOINT Chest2
		{
			OFFSET 0.000000 0.000000 3.343300
			CHANNELS 6 Xposition Yposition Zposition Zrotation Xrotation Yrotation
			JOINT Neck
			{
				OFFSET 0.000000 0.000000 7.785500
				CHANNELS 6 Xposition Yposition Zposition Zrotation Xrotation Yrotation
				JOINT Head
				{
					OFFSET 0.000000 0.000000 2.173901
					CHANNELS 6 Xposition Yposition Zposition Zrotation Xrotation Yrotation
					End Site
					{
						OFFSET 0.000000 0.000000 10.528198
					}
				}
			}
			JOINT LeftCollar
			{
				OFFSET 2.676300 -1.652401 4.938301
				CHANNELS 6 Xposition Yposition Zposition Zrotation Xrotation Yrotation
				JOINT LeftShoulder
				{
					OFFSET 4.299000 0.000000 0.000000
					CHANNELS 6 Xposition Yposition Zposition Zrotation Xrotation Yrotation
					JOINT LeftElbow
					{
						OFFSET 0.000000 0.000000 -10.245102
						CHANNELS 6 Xposition Yposition Zposition Zrotation Xrotation Yrotation
						JOINT LeftWrist
						{
							OFFSET 0.000000 0.000000 -12.703300
							CHANNELS 6 Xposition Yposition Zposition Zrotation Xrotation Yrotation
							End Site
							{
								OFFSET 0.000000 0.000000 -2.173901
							}
						}
					}
				}
			}
			JOINT RightCollar
			{
				OFFSET -2.534599 -1.686401 5.195000
				CHANNELS 6 Xposition Yposition Zposition Zrotation Xrotation Yrotation
				JOINT RightShoulder
				{
					OFFSET -4.144100 0.000000 0.000000
					CHANNELS 6 Xposition Yposition Zposition Zrotation Xrotation Yrotation
					JOINT RightElbow
					{
						OFFSET 0.000000 0.000000 -10.116501
						CHANNELS 6 Xposition Yposition Zposition Zrotation Xrotation Yrotation
						JOINT RightWrist
						{
							OFFSET 0.000000 0.000000 -12.937801
							CHANNELS 6 Xposition Yposition Zposition Zrotation Xrotation Yrotation
							End Site
							{
								OFFSET 0.000000 0.000000 -2.173901
							}
						}
					}
				}
			}
		}
	}
	JOINT LeftHip
	{
		OFFSET 2.175598 0.064499 -2.662899
		CHANNELS 6 Xposition Yposition Zposition Zrotation Xrotation Yrotation
		JOINT LeftKnee
		{
			OFFSET 0.000000 -0.000004 -18.585800
			CHANNELS 6 Xposition Yposition Zposition Zrotation Xrotation Yrotation
			JOINT LeftAnkle
			{
				OFFSET 0.000000 0.000000 -18.979500
				CHANNELS 6 Xposition Yposition Zposition Zrotation Xrotation Yrotation
				End Site
				{
					OFFSET 0.000000 -9.264000 0.000000
				}
			}
		}
	}
	JOINT RightHip
	{
		OFFSET -2.092400 -0.058102 -2.581200
		CHANNELS 6 Xposition Yposition Zposition Zrotation Xrotation Yrotation
		JOINT RightKnee
		{
			OFFSET 0.000000 -0.000004 -18.665001
			CHANNELS 6 Xposition Yposition Zposition Zrotation Xrotation Yrotation
			JOINT RightAnkle
			{
				OFFSET 0.000000 0.000000 -18.566601
				CHANNELS 6 Xposition Yposition Zposition Zrotation Xrotation Yrotation
				End Site
				{
					OFFSET 0.000000 -8.497601 0.000000
				}
			}
		}
	}
}
MOTION
Frames: 6
Frame Time: 0.041667
76.258804 40.517906 22.722094 736.017961 44.228969 10.338603 -0.153497 1.163103 7.852406 -8.546513 18.777725 10.381412 0.000001 -0.000003 3.343301 17.503738 -8.261355 2.285514 -0.000005 -0.000001 7.785501 -2.964058 0.184472 -7.044195 -0.000004 0.000004 2.173902 -2.176889 -5.893413 -2.578518 2.676289 -1.652405 4.938292 -11.178881 11.798203 8.314737 4.298994 0.000013 0.000010 -31.149542 7.989562 -103.926499 -0.000002 0.000005 -10.245098 165.496467 183.096663 179.801602 -0.000009 -0.000007 -12.703290 191.912757 183.348287 210.965419 -2.534601 -1.686399 5.194993 19.983820 22.407532 7.854797 -4.144102 -0.000007 0.000003 73.802544 -9.740764 101.421780 0.000010 0.000006 -10.116503 5.085404 -2.943229 -1.341268 0.000004 -0.000008 -12.937800 -14.332271 -4.657512 -19.269185 2.175589 0.064503 -2.662894 -214.622890 -12.110591 135.479002 -0.000010 0.000002 -18.585810 19.059085 -187.696440 -65.324981 0.000000 -0.000006 -18.979504 397.637494 -4.007970 21.389497 -2.092401 -0.058097 -2.581202 195.182996 3.226382 -77.913696 0.000003 0.000010 -18.665001 -889.313033 16.957275 -59.149233 -0.000008 -0.000001 -18.566608 674.456319 8.095341 -59.484582
76.037201 40.457603 22.618792 736.921786 43.680767 9.952075 -0.153511 1.163099 7.852398 -9.616609 18.366862 11.432717 -0.000010 0.000002 3.343294 18.671690 -8.075427 2.412690 -0.000006 0.000000 7.785500 -2.859134 0.578349 -6.702668 0.000001 -0.000003 2.173902 -2.233534 -5.783629 -2.719977 2.676294 -1.652400 4.938296 -11.423163 12.090963 8.846791 4.299011 0.000010 -0.000009 -29.904054 7.416183 -105.359623 -0.000007 0.000001 -10.245111 167.384605 181.987453 179.733286 -0.000009 0.000002 -12.703307 194.210596 183.114844 212.480970 -2.534610 -1.686396 5.194998 17.816468 23.409468 9.921529 -4.144109 0.000007 0.000003 77.243654 -12.519656 104.876687 -0.000002 0.000002 -10.116501 5.866527 -3.356293 -1.178908 0.000008 -0.000002 -12.937800 -9.883787 -6.602151 -20.949080 2.175589 0.064503 -2.662899 -214.655715 -12.164301 135.440056 -0.000007 -0.000006 -18.585800 18.766423 -187.547200 -65.493120 0.000005 0.000007 -18.979500 397.175555 -3.620332 21.338932 -2.092406 -0.058100 -2.581193 194.119563 3.909310 -77.832150 -0.000002 0.000008 -18.665001 -884.902097 12.912055 -60.077128 -0.000013 -0.000005 -18.566601 669.122706 7.335531 -64.412167
75.790199 40.407104 22.511898 737.860036 43.101752 9.559891 -0.153504 1.163105 7.852401 -10.741531 17.904695 12.371211 0.000003 0.000001 3.343302 19.816028 -7.909562 2.535882 -0.000016 -0.000002 7.785504 -2.775255 1.005710 -6.304160 0.000001 0.000002 2.173901 -2.242166 -5.654290 -2.810875 2.676274 -1.652399 4.938299 -11.575549 12.274389 9.296816 4.299006 -0.000003 -0.000001 -28.614062 6.736788 -106.595006 -0.000001 -0.000003 -10.245096 169.469684 181.078806 179.620301 0.000005 0.000001 -12.703306 196.744296 182.924528 214.028745 -2.534607 -1.686405 5.195004 15.079425 25.019861 12.072668 -4.144104 -0.000002 -0.000004 81.249253 -15.186666 109.362243 0.000010 -0.000003 -10.116497 5.729593 -4.042018 -1.134273 0.000005 -0.000004 -12.937809 -4.491128 -8.693828 -22.264489 2.175600 0.064507 -2.662896 -214.775230 -12.189314 135.412120 -0.000010 -0.000009 -18.585806 18.383483 -187.355354 -65.665077 0.000001 0.000011 -18.979498 396.615042 -3.359464 21.406189 -2.092390 -0.058099 -2.581202 192.998265 4.671236 -77.796866 -0.000001 0.000005 -18.665005 -881.104293 9.446557 -60.834869 -0.000002 0.000003 -18.566601 664.859903 6.982426 -67.753803
75.526199 40.361610 22.398701 738.599445 42.407975 9.250859 -0.153488 1.163105 7.852401 -11.751074 17.358530 13.273756 0.000003 0.000002 3.343305 20.877614 -7.708746 2.624606 0.000004 -0.000005 7.785511 -2.593907 1.484220 -5.894269 -0.000005 -0.000002 2.173911 -2.194184 -5.486057 -2.852989 2.676300 -1.652408 4.938307 -11.587384 12.302408 9.672440 4.299021 -0.000005 -0.000003 -27.181916 6.419818 -107.613271 -0.000006 0.000002 -10.245090 172.183673 180.331324 179.481635 -0.000006 0.000005 -12.703300 199.460116 182.609083 215.575182 -2.534595 -1.686403 5.195004 14.652643 22.231053 13.421390 -4.144107 -0.000000 0.000009 82.798736 -17.160864 109.134668 0.000002 0.000001 -10.116495 4.396553 -5.028728 -1.270507 0.000008 -0.000002 -12.937804 1.912794 -10.660050 -22.158020 2.175596 0.064501 -2.662891 -214.817222 -12.186195 135.345403 -0.000006 -0.000016 -18.585798 17.909676 -187.077447 -65.848283 0.000001 0.000001 -18.979502 396.294351 -3.014907 21.558468 -2.092387 -0.058095 -2.581203 192.052789 5.301592 -77.875474 0.000002 -0.000000 -18.665001 -878.114583 6.783074 -61.564443 -0.000004 0.000002 -18.566595 661.843473 6.853740 -69.806330
75.240311 40.323505 22.281595 739.253340 41.645514 8.991231 -0.153496 1.163102 7.852405 -12.721834 16.888899 14.114533 0.000007 0.000006 3.343297 21.788619 -7.626366 2.711136 0.000005 -0.000001 7.785510 -2.291715 1.984806 -5.459914 -0.000006 0.000000 2.173903 -2.071687 -5.273984 -2.846234 2.676299 -1.652396 4.938296 -11.386306 12.177399 10.036854 4.299002 -0.000006 -0.000011 -25.860273 5.963722 -108.526747 -0.000002 0.000003 -10.245106 174.510391 179.689518 179.378663 -0.000008 0.000000 -12.703299 202.576212 182.246277 216.839764 -2.534595 -1.686399 5.194996 14.564099 19.388493 14.719022 -4.144104 0.000003 -0.000010 83.845524 -19.081187 108.824557 0.000002 0.000005 -10.116502 1.812089 -6.300670 -1.672931 0.000004 -0.000006 -12.937802 9.417023 -12.742708 -22.514293 2.175589 0.064495 -2.662896 -214.856755 -12.197037 135.286404 -0.000005 -0.000005 -18.585804 17.364747 -186.646735 -66.023566 0.000004 -0.000000 -18.979498 396.110674 -2.717994 21.631921 -2.092398 -0.058102 -2.581193 191.272167 5.703312 -78.014762 -0.000006 0.000002 -18.665003 -876.026239 5.042117 -62.362236 -0.000003 -0.000004 -18.566601 660.145652 6.895297 -70.712621
74.937614 40.292412 22.159397 739.733584 40.818703 8.752669 -0.153496 1.163107 7.852399 -13.617910 16.348539 14.972480 0.000005 0.000004 3.343301 22.563091 -7.574182 2.775314 -0.000002 -0.000006 7.785511 -1.772137 2.536891 -5.076387 -0.000003 0.000006 2.173911 -1.941215 -5.039795 -2.778112 2.676294 -1.652396 4.938305 -11.070643 11.976773 10.432554 4.298988 -0.000002 -0.000018 -24.496040 5.463116 -109.380746 -0.000005 0.000000 -10.245101 176.870098 179.052972 179.295949 -0.000004 0.000001 -12.703320 205.632339 181.974380 218.513680 -2.534596 -1.686403 5.195009 12.454462 19.745770 16.140449 -4.144101 -0.000004 0.000005 87.027368 -20.502018 112.419292 0.000001 0.000000 -10.116490 -2.111928 -7.768891 -2.477351 0.000000 -0.000005 -12.937797 17.911524 -14.749585 -22.541602 2.175592 0.064508 -2.662900 -214.864883 -12.151822 135.177449 -0.000006 -0.000007 -18.585796 16.693940 -186.204590 -66.198672 0.000002 0.000001 -18.979498 395.970737 -2.381126 21.636716 -2.092397 -0.058097 -2.581198 190.685412 5.948917 -78.284705 -0.000004 0.000005 -18.664999 -874.588347 4.025050 -63.227129 -0.000013 0.000001 -18.566601 659.377938 7.014029 -70.981430
